<?xml version="1.0" encoding="UTF-8" standalone="no"?>
<!DOCTYPE svg PUBLIC "-//W3C//DTD SVG 1.1//EN" "http://www.w3.org/Graphics/SVG/1.1/DTD/svg11.dtd">
<svg width="100%" height="100%" viewBox="0 0 866 74" version="1.1" xmlns="http://www.w3.org/2000/svg" xmlns:xlink="http://www.w3.org/1999/xlink" xml:space="preserve" xmlns:serif="http://www.serif.com/" style="fill-rule:evenodd;clip-rule:evenodd;stroke-linejoin:round;stroke-miterlimit:2;">
    <g transform="matrix(1.702121,0,0,1.702121,-328.643079,-136.411904)">
        <g transform="matrix(50,0,0,50,193.017128,119.729908)">
            <path d="M0.043,-0L0.043,-0.177L0.644,-0.673L0.733,-0.547L0.064,-0.547L0.064,-0.714L0.786,-0.714L0.786,-0.537L0.187,-0.041L0.098,-0.167L0.803,-0.167L0.803,-0L0.043,-0Z" style="fill-rule:nonzero;"/>
        </g>
        <g transform="matrix(50,0,0,50,235.117128,119.729908)">
            <path d="M0.489,0.014C0.394,0.014 0.311,-0.001 0.24,-0.031C0.17,-0.061 0.116,-0.104 0.077,-0.16C0.039,-0.215 0.02,-0.281 0.02,-0.357C0.02,-0.395 0.025,-0.431 0.035,-0.464C0.044,-0.496 0.058,-0.527 0.077,-0.554C0.096,-0.582 0.12,-0.607 0.147,-0.628C0.174,-0.649 0.205,-0.667 0.24,-0.682C0.275,-0.697 0.313,-0.709 0.354,-0.717C0.396,-0.724 0.441,-0.728 0.489,-0.728C0.584,-0.728 0.667,-0.713 0.737,-0.682C0.807,-0.652 0.861,-0.609 0.899,-0.554C0.938,-0.499 0.957,-0.433 0.957,-0.357C0.957,-0.319 0.952,-0.284 0.943,-0.251C0.933,-0.218 0.918,-0.187 0.899,-0.16C0.88,-0.132 0.857,-0.107 0.831,-0.086C0.803,-0.065 0.772,-0.047 0.738,-0.032C0.703,-0.017 0.664,-0.005 0.623,0.003C0.582,0.01 0.537,0.014 0.489,0.014ZM0.489,-0.153C0.513,-0.153 0.535,-0.155 0.556,-0.159C0.577,-0.163 0.596,-0.169 0.614,-0.177C0.631,-0.185 0.647,-0.195 0.661,-0.207C0.675,-0.218 0.687,-0.232 0.697,-0.246C0.706,-0.262 0.713,-0.278 0.719,-0.297C0.724,-0.316 0.726,-0.336 0.726,-0.357C0.726,-0.4 0.716,-0.437 0.697,-0.468C0.677,-0.498 0.649,-0.521 0.614,-0.537C0.578,-0.553 0.536,-0.561 0.489,-0.561C0.465,-0.561 0.443,-0.559 0.421,-0.555C0.401,-0.551 0.381,-0.545 0.363,-0.537C0.346,-0.529 0.33,-0.519 0.316,-0.508C0.302,-0.496 0.29,-0.482 0.281,-0.468C0.271,-0.452 0.264,-0.436 0.259,-0.417C0.254,-0.399 0.251,-0.379 0.251,-0.357C0.251,-0.314 0.261,-0.277 0.281,-0.246C0.3,-0.216 0.328,-0.193 0.364,-0.177C0.4,-0.161 0.442,-0.153 0.489,-0.153Z" style="fill-rule:nonzero;"/>
        </g>
        <g transform="matrix(50,0,0,50,283.967128,119.729908)">
            <path d="M0.057,-0L0.057,-0.714L0.305,-0.714L0.743,-0.193L0.682,-0.181L0.682,-0.714L0.882,-0.714L0.882,-0L0.635,-0L0.209,-0.506L0.257,-0.523L0.257,-0L0.057,-0Z" style="fill-rule:nonzero;"/>
        </g>
        <g transform="matrix(50,0,0,50,330.967128,119.729908)">
            <path d="M0.008,-0L0.353,-0.714L0.615,-0.714L0.959,-0L0.718,-0L0.447,-0.597L0.503,-0.597L0.231,-0L0.008,-0ZM0.227,-0.138L0.227,-0.298L0.72,-0.298L0.72,-0.138L0.227,-0.138Z" style="fill-rule:nonzero;"/>
        </g>
        <g transform="matrix(50,0,0,50,375.817128,119.729908)">
            <path d="M0.243,-0L0.243,-0.714L0.465,-0.714L0.465,-0L0.243,-0ZM0.034,-0.406L0.034,-0.571L0.259,-0.571L0.259,-0.406L0.034,-0.406Z" style="fill-rule:nonzero;"/>
        </g>
        <g transform="matrix(50,0,0,50,402.967128,119.729908)">
            <path d="M0.525,-0L0.525,-0.573L0.575,-0.549L0.268,-0.311L0.541,-0.311L0.541,-0.146L0.021,-0.146L0.021,-0.324L0.522,-0.714L0.742,-0.714L0.742,-0L0.525,-0ZM0.726,-0.146L0.726,-0.311L0.869,-0.311L0.869,-0.146L0.726,-0.146Z" style="fill-rule:nonzero;"/>
        </g>
        <g transform="matrix(50,0,0,50,447.467128,119.729908)">
            <rect x="0.054" y="-0.215" width="0.215" height="0.215" style="fill-rule:nonzero;"/>
        </g>
        <g transform="matrix(50,0,0,50,464.167128,119.729908)">
            <path d="M0.008,-0L0.353,-0.714L0.615,-0.714L0.959,-0L0.718,-0L0.447,-0.597L0.503,-0.597L0.231,-0L0.008,-0ZM0.227,-0.138L0.227,-0.298L0.72,-0.298L0.72,-0.138L0.227,-0.138Z" style="fill-rule:nonzero;"/>
        </g>
        <g transform="matrix(50,0,0,50,512.517128,119.729908)">
            <path d="M0.057,-0L0.057,-0.714L0.552,-0.714C0.597,-0.714 0.638,-0.708 0.673,-0.697C0.708,-0.686 0.738,-0.669 0.763,-0.648C0.788,-0.627 0.807,-0.601 0.82,-0.57C0.833,-0.539 0.839,-0.505 0.839,-0.466C0.839,-0.427 0.833,-0.393 0.82,-0.362C0.807,-0.331 0.788,-0.305 0.763,-0.284C0.738,-0.262 0.708,-0.245 0.673,-0.234C0.638,-0.223 0.597,-0.217 0.552,-0.217L0.279,-0.217L0.279,-0L0.057,-0ZM0.279,-0.386L0.532,-0.386C0.547,-0.386 0.56,-0.389 0.572,-0.396C0.583,-0.402 0.592,-0.411 0.599,-0.423C0.606,-0.435 0.609,-0.449 0.609,-0.466C0.609,-0.491 0.602,-0.511 0.587,-0.525C0.572,-0.54 0.554,-0.547 0.532,-0.547L0.279,-0.547L0.279,-0.386Z" style="fill-rule:nonzero;"/>
        </g>
        <g transform="matrix(50,0,0,50,555.617128,119.729908)">
            <path d="M0.057,-0L0.057,-0.714L0.552,-0.714C0.597,-0.714 0.638,-0.708 0.673,-0.697C0.708,-0.686 0.738,-0.669 0.763,-0.648C0.788,-0.627 0.807,-0.601 0.82,-0.57C0.833,-0.539 0.839,-0.505 0.839,-0.466C0.839,-0.427 0.833,-0.393 0.82,-0.362C0.807,-0.331 0.788,-0.305 0.763,-0.284C0.738,-0.262 0.708,-0.245 0.673,-0.234C0.638,-0.223 0.597,-0.217 0.552,-0.217L0.279,-0.217L0.279,-0L0.057,-0ZM0.279,-0.386L0.532,-0.386C0.547,-0.386 0.56,-0.389 0.572,-0.396C0.583,-0.402 0.592,-0.411 0.599,-0.423C0.606,-0.435 0.609,-0.449 0.609,-0.466C0.609,-0.491 0.602,-0.511 0.587,-0.525C0.572,-0.54 0.554,-0.547 0.532,-0.547L0.279,-0.547L0.279,-0.386Z" style="fill-rule:nonzero;"/>
        </g>
        <g transform="matrix(50,0,0,50,594.317128,119.729908)">
            <rect x="0.054" y="-0.215" width="0.215" height="0.215" style="fill-rule:nonzero;"/>
        </g>
        <g transform="matrix(50,0,0,50,610.467128,119.729908)">
            <path d="M0.057,-0L0.057,-0.714L0.619,-0.714C0.69,-0.714 0.746,-0.699 0.785,-0.667C0.825,-0.636 0.845,-0.593 0.845,-0.538C0.845,-0.502 0.836,-0.471 0.819,-0.445C0.802,-0.419 0.777,-0.399 0.744,-0.386C0.711,-0.372 0.67,-0.364 0.623,-0.363L0.646,-0.369C0.693,-0.369 0.733,-0.362 0.767,-0.348C0.801,-0.334 0.827,-0.314 0.846,-0.288C0.864,-0.261 0.873,-0.23 0.873,-0.194C0.873,-0.153 0.863,-0.119 0.843,-0.089C0.823,-0.06 0.794,-0.038 0.756,-0.023C0.718,-0.008 0.672,-0 0.618,-0L0.057,-0ZM0.279,-0.165L0.586,-0.165C0.597,-0.165 0.607,-0.168 0.616,-0.173C0.625,-0.177 0.631,-0.184 0.636,-0.194C0.641,-0.203 0.643,-0.213 0.643,-0.225C0.643,-0.238 0.64,-0.249 0.636,-0.258C0.631,-0.267 0.624,-0.275 0.615,-0.28C0.606,-0.285 0.596,-0.288 0.585,-0.288L0.279,-0.288L0.279,-0.165ZM0.279,-0.437L0.565,-0.437C0.576,-0.437 0.586,-0.439 0.595,-0.444C0.603,-0.449 0.609,-0.455 0.614,-0.464C0.619,-0.472 0.621,-0.482 0.621,-0.493C0.621,-0.51 0.616,-0.523 0.606,-0.533C0.596,-0.544 0.583,-0.549 0.566,-0.549L0.279,-0.549L0.279,-0.437Z" style="fill-rule:nonzero;"/>
        </g>
        <g transform="matrix(50,0,0,50,655.467128,119.729908)">
            <path d="M0.057,-0L0.057,-0.714L0.585,-0.714C0.64,-0.714 0.686,-0.707 0.726,-0.692C0.764,-0.677 0.795,-0.656 0.816,-0.627C0.837,-0.598 0.847,-0.561 0.847,-0.518C0.847,-0.485 0.839,-0.454 0.824,-0.425C0.809,-0.396 0.784,-0.373 0.75,-0.354C0.715,-0.335 0.669,-0.324 0.611,-0.32L0.63,-0.33C0.668,-0.33 0.7,-0.325 0.726,-0.316C0.751,-0.307 0.772,-0.292 0.788,-0.272C0.805,-0.251 0.818,-0.225 0.828,-0.192L0.886,-0L0.655,-0L0.608,-0.157C0.6,-0.184 0.587,-0.206 0.569,-0.221C0.551,-0.236 0.524,-0.243 0.489,-0.243L0.279,-0.243L0.279,-0L0.057,-0ZM0.279,-0.41L0.549,-0.41C0.56,-0.41 0.57,-0.412 0.581,-0.416C0.591,-0.421 0.6,-0.428 0.607,-0.438C0.614,-0.448 0.617,-0.461 0.617,-0.478C0.617,-0.504 0.61,-0.522 0.595,-0.532C0.58,-0.542 0.564,-0.547 0.549,-0.547L0.279,-0.547L0.279,-0.41Z" style="fill-rule:nonzero;"/>
        </g>
        <g transform="matrix(50,0,0,50,700.867128,119.729908)">
        </g>
    </g>
</svg>
